<svg width="125" height="64" viewBox="0 0 125 64" fill="none" xmlns="http://www.w3.org/2000/svg">
<path d="M77.2729 0.197181C75.856 1.50396 73.8218 1.75526 72.4575 3.3984C73.5587 4.02473 74.5583 3.27855 75.5578 3.48732C75.5473 4.09819 75.1861 4.44228 74.7863 4.68198C73.7937 5.13046 72.7872 6.17821 71.6719 5.64854C70.9915 5.34697 70.2023 5.11887 69.5851 4.70518C69.2589 3.88168 68.7223 4.17164 68.2734 4.45388C64.7592 6.63055 63.7351 11.7842 65.3344 15.693C65.9516 16.8799 67.0599 18.6467 68.5189 17.9856C71.2229 17.1119 70.3602 21.3454 74.7512 20.9819C76.0418 20.9742 77.3325 20.9819 78.8125 20.9819C76.0348 22.915 72.6188 23.3403 69.3852 22.83C69.0345 22.7604 68.6592 22.6212 68.3751 22.3931C67.0318 21.2874 65.3764 21.1404 63.8263 20.634C60.8276 19.6752 62.6268 15.7741 62.5567 13.2998C57.6816 15.3527 53.7571 19.5476 50.4358 23.8971C45.5222 30.3382 39.6055 37.2664 39.8896 46.2554C40.1491 60.1235 54.7145 60.425 61.6202 51.7029C60.2138 51.1577 58.8425 51.0301 57.6816 49.9785C63.3844 49.7195 67.593 46.0079 71.9104 42.2345C67.7578 50.2376 61.7079 58.7394 53.2696 61.1673C45.5643 63.1932 36.9786 57.564 36.6735 48.3934C34.7445 30.516 61.3747 0.529671 77.2413 0C77.2518 0.0695918 77.2623 0.135323 77.2729 0.204915V0.197181Z" fill="#FFF9F9"/>
<path d="M68.8096 34.1851C67.547 34.765 64.4888 35.1323 63.9487 36.2419C63.1525 37.9894 62.3809 39.7486 61.6304 41.5232C61.42 42.018 61.0447 42.3815 60.5817 42.2268C58.7089 41.2603 59.3367 38.0242 59.4103 36.1646C59.3647 36.1221 59.3191 36.0795 59.2736 36.037C57.548 37.5874 56.3941 39.7292 54.623 41.2332C53.9321 41.9253 52.4626 41.8286 51.8172 40.9239C50.8878 39.7254 51.0246 38.3683 50.8878 36.9494C50.8072 34.6374 53.0693 30.2493 55.37 30.3112C56.808 30.6552 58.4915 31.9814 57.2464 33.6825C56.3415 35.0782 55.2648 36.6517 53.4902 36.2883C53.0132 36.1955 52.7642 36.443 52.7782 36.9224C52.8764 37.8851 52.6134 41.0592 54.1601 39.8491C56.0119 38.2562 57.5375 36.6865 59.491 35.1439C59.5296 34.0807 59.5857 32.7971 59.6103 31.5097C59.6173 31.0651 59.7225 30.8486 60.1679 30.9065C61.1148 31.0264 61.3147 31.239 61.2551 32.2984C61.2095 34.5485 60.722 36.6943 61.0692 38.956C61.704 37.6415 62.8053 36.5126 62.672 34.8887C62.6089 34.3745 63.0157 34.2044 63.3735 34.1232C65.078 33.7521 66.7825 33.3887 68.4975 33.0716C68.8622 33.0059 69.1148 32.9595 69.1463 32.4956C69.4515 31.0148 70.4826 30.5895 71.2401 32.02C72.2256 34.5524 70.8543 37.3979 71.8469 39.9148C72.9025 38.7047 73.7653 37.5178 73.9722 35.9288C74.3896 33.7289 75.4558 31.5638 77.2129 30.4078C77.746 30.0367 79.4224 30.5973 79.7311 31.212C79.9555 31.6605 79.5767 33.4041 79.1839 33.7173C78.3141 34.1232 78.4615 32.7198 78.4755 31.9466C74.7263 33.493 74.7298 41.7203 76.7184 39.7756C78.002 38.7743 79.1664 37.568 80.3939 36.501C81.888 35.7702 81.5267 33.7714 82.0213 32.3138C82.7017 29.565 83.2628 26.8238 83.9678 24.075C85.1286 24.2103 85.4127 25.1266 84.8937 26.1743C84.2343 27.6473 83.9818 29.2402 83.6696 30.8292C83.3189 32.6154 82.6631 34.1851 82.365 36.0138C83.1646 35.8824 84.0134 34.4441 84.6692 33.841C85.6758 32.7546 87.6679 32.8628 87.4715 34.796C87.4539 37.1427 86.8226 39.5205 87.3101 41.8402C87.4048 41.8673 87.4995 41.8905 87.5942 41.9175C89.9405 38.2562 90.2316 32.9556 93.8826 30.4155C94.7875 29.9593 95.8817 30.5818 96.5761 31.2622C97.6844 32.4221 96.6463 33.7869 95.8993 34.7728C94.1316 37.452 92.1606 35.4687 92.1921 36.8837C92.3359 37.7884 91.9431 40.9742 93.4688 39.9187C95.1382 38.6776 96.5656 37.0036 98.1614 35.6929C98.8628 35.5073 98.8383 34.8539 99.0417 34.2972C99.4871 33.0639 99.9606 31.8344 100.518 30.6591C100.813 30.0405 101.925 30.2609 102.146 30.9297C102.24 31.2158 102.289 31.5213 102.381 31.9311C103.173 30.9297 103.675 29.391 105.06 29.4529C105.684 29.5108 106.028 29.9864 106.175 30.6127C106.375 31.4633 106.414 32.2868 105.716 32.944C105.435 33.1915 105.221 33.8487 104.906 33.9879C104.222 33.6902 104.334 32.0432 104.096 31.2236C101.374 33.841 100.862 37.7691 99.7396 41.3337C99.5783 41.8673 99.3994 42.6096 98.7611 42.5013C97.4529 42.4395 98.6138 37.5835 98.3999 36.4236C98.3508 36.385 98.3017 36.3463 98.2526 36.3076C96.9654 37.8348 94.3526 42.2307 92.3009 41.6469C90.5438 41.0592 90.4105 39.3156 90.2877 37.5603C89.3092 38.8014 89.0497 42.2461 87.9484 43.1547C85.3426 42.9769 86.2054 36.7677 85.9984 34.6065C82.4562 36.3502 82.6175 41.5193 81.5127 40.7654C79.8433 40.3324 80.8849 38.6506 81.1515 37.4327L81.0252 37.3283C78.7946 39.4818 75.0805 45.3314 73.6706 38.9637C72.9481 40.4174 71.7487 42.4511 70.181 41.0012C68.2801 39.2576 68.4133 36.6904 68.8061 34.2006L68.8096 34.1851ZM92.4762 34.8385C95.5626 35.3024 96.1868 31.0805 94.3912 31.9504C93.325 32.5381 92.7708 33.5549 92.4762 34.8385ZM53.0658 34.8153C56.2328 35.3102 56.7589 31.1115 55.0158 31.9427C53.9146 32.5188 53.3955 33.582 53.0658 34.8153Z" fill="#FFF9F9"/>
<path d="M36.3719 16.2034C41.7941 10.2263 49.7519 9.63473 56.9206 8.38208C48.8505 16.9883 41.2645 26.0816 36.2492 37.2704C36.179 37.2511 36.1089 37.2279 36.0387 37.2085C36.1054 36.4392 36.3474 35.8476 36.7402 35.1943C34.4956 33.7174 32.9454 37.1312 31.767 38.6893C31.9073 35.9714 32.7315 33.381 35.1304 32.0936C35.3478 31.9041 35.7371 31.5871 35.695 31.4711C34.6779 28.2737 30.8691 32.1322 29.1892 32.89C29.1436 32.8552 29.0945 32.8204 29.0489 32.7817C32.528 25.1653 36.2176 28.6178 38.4727 24.6434C40.1913 21.2643 34.1904 23.8469 32.9875 24.0441C31.5741 24.4037 30.3501 25.4553 28.9121 25.6756C32.7385 20.3403 38.3079 18.0128 44.2175 16.938C44.4385 16.8607 44.7191 16.5707 44.7471 16.3465C44.2631 13.7832 38.1851 16.1918 36.5157 16.4083C36.4701 16.3426 36.421 16.273 36.3754 16.2073L36.3719 16.2034Z" fill="#FFF9F9"/>
<path d="M15.2486 25.7101C15.5361 27.0749 15.2731 28.4783 15.1784 29.8547C15.0627 30.9334 14.4664 31.5752 13.4774 31.5752C10.0649 31.4012 6.6524 31.3625 3.23288 31.4863C2.33153 31.4128 -1.06344 32.1783 0.332421 30.2065C1.52487 29.5686 2.24735 28.6601 2.31048 27.1909C2.80149 22.2615 2.66822 17.305 2.68575 12.3562C2.72784 8.54416 0.728735 9.37539 0.413087 7.96809C0.528824 7.50801 1.11102 7.20645 1.55644 7.30697C3.41174 7.51188 5.26705 7.53508 7.12236 7.31471C8.2096 7.05567 8.24817 8.63308 7.5292 9.01197C4.40428 9.6615 5.49502 14.7224 5.21094 17.2895C5.1899 20.0345 5.20042 22.7757 5.21795 25.5207C5.25303 27.102 5.30563 29.3598 7.13289 29.4952C8.59539 29.6769 10.0719 29.7697 11.5449 29.7851C12.4638 29.7967 13.1267 29.2013 13.537 28.2812C13.986 27.3571 14.2946 26.321 15.0592 25.6483C15.1223 25.6715 15.1854 25.6908 15.2486 25.714V25.7101Z" fill="#FFF9F9"/>
<path d="M117.961 32.2558C125.154 25.7567 119.073 39.099 120.834 44.0671C120.911 44.0787 120.988 44.0903 121.065 44.1019C121.693 42.4239 122.247 40.688 122.65 38.9328C122.854 37.9237 123.808 34.9854 125 35.5692C124.965 35.7277 124.976 35.9326 124.888 36.0447C123.19 38.5268 123.075 41.7512 122.352 44.6509C122.061 46.325 120.255 46.468 119.718 44.9563C119.522 44.3957 119.522 43.7539 119.35 43.1779C118.761 41.1906 119.231 39.2034 119.333 37.2239C119.347 35.6929 119.974 34.1735 119.873 32.6424C119.147 32.3873 119.087 33.1721 118.712 33.4273C117.077 35.1709 116.173 37.6337 115.075 39.8065C114.647 40.6687 114.356 40.7963 113.49 40.6571C112.672 40.5836 112.458 39.8065 112.216 38.9212C111.873 39.5204 111.589 40.0501 111.277 40.5643C109.607 43.0039 107.212 39.8413 107.166 37.7149C106.973 36.2109 107.534 28.4244 109.814 32.0625C110.768 34.5987 109.39 37.3785 110.379 39.907C112.465 37.5912 113.062 34.5214 114.7 31.9156C115.411 30.6475 117.295 30.9916 117.961 32.2519V32.2558ZM117.649 32.8783C115.938 31.6488 114.307 36.1607 114.089 37.5487C114.135 37.568 114.18 37.5912 114.226 37.6105C115.362 36.0408 116.499 34.4673 117.649 32.8783Z" fill="#FFF9F9"/>
<path d="M24.4837 26.1587C22.8493 27.7245 21.3973 29.5571 19.6332 30.9412C17.8305 32.2518 16.4276 30.512 16.3855 28.981C16.347 27.593 16.61 26.2747 17.1326 25.0259C19.0054 20.6996 22.0918 16.1761 26.6581 15.3874C27.57 15.2405 28.4363 15.0124 29.1833 14.3667C30.6704 13.6399 29.6638 16.1645 29.4429 16.8256C28.6011 19.3503 27.7173 21.8594 26.9142 24.4034C26.7178 25.4782 26.0023 27.5273 27.2158 28.1304C27.7419 28.347 28.1206 28.0415 28.4643 27.6858C29.2254 26.9976 29.762 25.9576 30.7195 25.5942C31.1368 27.5892 28.6608 29.7658 27.3491 30.8407C26.0304 31.8729 24.1785 31.0688 24.4661 29.0274C24.5608 28.1072 24.7783 27.2026 24.7116 26.2708C24.638 26.2321 24.5608 26.1935 24.4872 26.1548L24.4837 26.1587ZM25.5393 18.0203C22.3899 18.2445 20.1453 21.9329 18.9283 24.8132C18.5565 25.888 18.1181 28.6524 19.8998 28.0995C22.6038 27.0402 24.3188 24.2062 25.7568 21.6159C26.2408 20.5295 27.5981 17.854 25.5393 18.0203Z" fill="#FFF9F9"/>
<path d="M89.7589 49.7079C90.3727 49.128 90.8952 48.9192 91.032 48.0145C91.1618 47.0287 92.5787 46.5724 92.4279 47.9372C92.249 48.8264 92.9048 48.7685 93.4765 48.5558C96.6681 47.7439 96.0017 52.8396 94.5953 54.5059C93.3257 56.555 91.2985 54.9428 90.7795 57.0344C90.4673 58.3683 90.1307 59.6944 89.8992 61.0437C89.7554 61.8865 89.9553 62.0914 90.7163 62.3041C91.1197 62.3736 91.4809 62.4703 91.7124 62.8801C91.4248 63.2165 91.1267 63.3015 90.7234 63.1933C89.566 63.1546 88.4367 63.1624 87.2793 63.027C87.3179 62.8221 87.3179 62.7487 87.3354 62.7409C88.6471 62.1571 88.6331 60.7576 88.8996 59.5668C89.587 56.4274 90.1447 53.319 90.7865 50.1564C90.4638 50.0172 90.1762 49.8897 89.7554 49.7079H89.7589ZM91.3687 53.2185C91.281 54.7997 91.9018 55.2521 92.7681 54.7456C93.8904 53.9453 94.441 52.4143 94.5602 50.9799C94.7917 49.0198 92.4279 48.4785 91.986 50.4155C91.6984 51.498 91.4985 52.6115 91.3687 53.2146V53.2185Z" fill="#FFF9F9"/>
<path d="M80.6168 8.48237C81.4515 6.80057 82.928 2.40469 79.6874 4.90226C76.85 7.06734 74.9 10.3072 72.7817 13.2533C72.68 13.1644 72.5783 13.0754 72.4766 12.9865C74.0373 8.93472 77.1517 5.95774 79.7189 2.68693C80.5712 1.68558 81.6584 1.01672 82.921 0.773147C83.8504 0.595301 84.0854 0.81568 83.9486 1.84796C83.6049 4.41512 82.6825 6.93589 80.8623 8.66022C80.7781 8.60223 80.6974 8.54424 80.6133 8.48624L80.6168 8.48237Z" fill="#FFF9F9"/>
<path d="M73.5109 17.3515C75.0821 17.2162 76.6078 17.8155 78.165 17.8851C79.9642 17.9469 82.5244 17.0577 79.5643 15.5769C79.5784 15.5112 79.5924 15.4455 79.6064 15.3759C84.5305 14.7998 87.9676 22.2462 79.6275 19.8027C77.5652 19.1107 75.5451 18.264 73.5039 17.4869C73.5039 17.4405 73.5074 17.3941 73.5109 17.3477V17.3515Z" fill="#FFF9F9"/>
<path d="M83.587 54.2508C82.8154 55.1014 80.0166 59.4818 79.6554 56.4661C79.6484 55.921 79.95 55.805 80.427 55.9481C81.5353 56.2187 82.1876 54.3281 82.8855 53.6013C83.4186 52.8899 82.1069 50.9375 81.6054 50.6166C81.1144 50.516 80.7847 51.065 80.5322 51.4594C79.5326 50.6398 80.8093 48.5597 81.8439 49.1977C82.8189 49.7969 83.359 50.7171 83.9903 51.7726C84.7198 51.0264 87.0521 47.0287 87.7255 49.3059C87.7605 49.7196 87.6413 49.998 87.2099 49.8008C86.291 49.3175 85.2915 51.6488 84.7654 52.3177C84.2323 53.4621 85.2354 54.5717 85.6738 55.5576C85.9122 56.0138 86.256 56.2032 86.7505 56.0138C88.227 55.7973 86.4348 58.7665 85.2108 57.0113C84.5865 56.0757 84.2183 55.2444 83.58 54.2547L83.587 54.2508Z" fill="#FFF9F9"/>
<path d="M73.5205 54.6219C73.5521 52.0315 74.9795 49.2672 77.4907 49.3561C78.1676 49.3948 78.6866 49.7543 78.9742 50.4425C79.595 52.2867 77.431 53.7984 75.9124 53.5548C75.1619 53.4543 74.8077 53.752 74.727 54.5059C74.4604 56.4042 75.7125 56.7599 76.8909 56.1684C77.2171 56.0253 77.4766 55.7044 77.7818 55.4879C78.0588 55.2946 78.2833 54.7185 78.6621 55.1438C78.4727 58.0821 73.496 59.4546 73.524 54.6219H73.5205ZM77.147 50.5508C76.2175 50.5469 75.239 51.7029 75.7721 52.5999C76.3157 53.1102 77.0733 52.6269 77.5117 52.2132C77.9782 51.3472 77.7993 50.9992 77.147 50.5508Z" fill="#FFF9F9"/>
<path d="M105.569 51.9271C103.532 51.3394 103.991 55.6232 105.832 54.7687C106.66 54.4014 107.309 53.5895 108.224 53.431C108.221 54.9543 106.863 55.9402 105.597 56.1606C102.374 56.5008 102.609 51.0301 104.3 49.1279C105.211 47.767 107.66 46.9126 108.501 48.7568C109.185 50.5739 107.056 52.101 105.566 51.9271H105.569ZM106.022 51.1693C106.544 50.9141 107.884 50.3728 107.281 49.387C106.418 47.6549 103.798 51.1731 106.022 51.1693Z" fill="#FFF9F9"/>
<path d="M96.9828 49.5068C97.0249 48.6949 97.6878 48.0686 98.3261 48.173C99.2976 48.3121 98.6978 49.9901 98.7574 50.7711C98.8346 50.8059 98.9118 50.8406 98.9889 50.8754C99.7851 50.1215 100.22 48.9694 101.076 48.3006C102.268 47.3572 103.271 48.4513 102.496 49.7968C101.805 51.2157 101.234 48.5093 100.476 49.9669C99.1994 51.6487 98.6557 53.779 98.1963 55.8745C98.049 57.1117 96.4673 56.609 96.7724 55.511C97.1161 53.7171 97.814 51.9734 97.9894 50.1525C97.9052 49.1472 97.7088 49.5145 96.9863 49.5107L96.9828 49.5068Z" fill="#FFF9F9"/>
<path d="M119.437 49.4721C118.704 48.8883 117.659 47.7942 116.968 48.7955C116.526 49.3793 116.582 49.9399 117.189 50.543C117.638 50.9877 118.139 51.3743 118.592 51.8189C119.212 52.4259 119.644 53.1295 119.325 54.1077C118.869 56.2534 114.13 55.9093 115.439 53.1991C117.304 54.908 119.202 53.7443 116.841 51.7454C114.793 49.8355 116.869 45.6871 119.289 47.5545C119.71 47.8483 119.77 48.6099 119.437 49.4721Z" fill="#FFF9F9"/>
<path d="M113.58 49.8006C112.837 49.2284 111.791 48.1149 111.107 49.1279C110.673 49.7117 110.725 50.2723 111.325 50.8715C111.774 51.32 112.268 51.7105 112.724 52.1512C113.331 52.7389 113.766 53.4271 113.485 54.3743C113.075 56.6322 108.242 56.2069 109.564 53.5431C110.276 54.065 111.286 54.8653 112.051 54.0689C112.581 53.2531 111.353 52.5997 110.946 52.043C108.993 50.2491 110.904 46.1509 113.331 47.8095C113.822 48.1458 113.931 48.8224 113.58 49.8083V49.8006Z" fill="#FFF9F9"/>
<path d="M109.995 27.8869C110.016 29.2826 108.578 29.3715 108.628 27.9874C108.606 27.6433 108.645 27.2374 109.066 27.2915C109.445 27.3379 109.964 27.2915 109.995 27.8869Z" fill="#FFF9F9"/>
<path d="M70.042 27.7554C70.1647 27.6394 70.3682 27.2876 70.5435 27.3069C70.9153 27.3456 71.4589 27.2876 71.4519 27.999C71.2941 29.4797 70.0245 29.2207 70.0455 27.7554H70.042Z" fill="#FFF9F9"/>
<path d="M90.4883 58.7895C90.5058 58.4687 90.5795 58.1671 90.7198 57.8849C95.4334 58.0395 100.109 57.2817 104.808 57.0498C105.818 56.9183 106.839 56.6631 107.866 57.0382C108.115 57.1309 108.431 57.1541 108.642 56.8448C108.736 56.7018 108.87 56.6786 109.02 56.7327C110.96 57.2276 112.882 56.4582 114.842 56.5549C116.561 56.2224 118.311 56.5278 120.05 56.3693C120.717 56.1451 122.334 56.4776 121.723 57.7186C121.467 57.1619 121.159 56.9647 120.594 57.2817C120.107 57.5562 119.559 57.3823 119.009 57.2701C116.273 56.6245 113.464 58.0434 110.669 57.8191C107.414 57.5988 104.303 58.2637 101.077 57.9931C98.0989 58.2251 95.1739 58.7393 92.1682 58.6581C91.5931 58.4764 90.9933 59.1491 90.4883 58.7895Z" fill="white"/>
<path d="M89.3136 58.1982C89.2926 58.4998 89.2996 58.8052 89.1523 59.0759C88.2404 59.2692 87.2619 58.581 86.4377 59.13C86.2027 59.3504 85.8801 59.2228 85.617 59.1532C84.0984 58.6815 82.6043 59.7409 81.1944 59.2537C79.6057 59.6017 77.9959 59.5359 76.3931 59.4896C75.383 59.4664 72.8543 60.2435 73.3523 58.2601C73.7452 58.4766 73.7522 59.1996 74.4045 58.7086C75.7092 58.2098 77.312 59.1107 78.7464 58.7511C82.2291 57.9933 85.8029 58.2601 89.3101 58.2021L89.3136 58.1982Z" fill="white"/>
</svg>
