<?xml version="1.0" encoding="UTF-8"?>
<svg id="Capa_2" data-name="Capa 2" xmlns="http://www.w3.org/2000/svg" viewBox="0 0 422.4 422.4">
  <defs>
    <style>
      .cls-1, .cls-2, .cls-3 {
        stroke-width: 0px;
      }

      .cls-2 {
        fill: #eb6017;
      }

      .cls-3 {
        fill: #1d1d1b;
      }
    </style>
  </defs>
  <g id="Capa_1-2" data-name="Capa 1">
    <circle class="cls-2" cx="211.2" cy="211.2" r="211.2"/>
    <g>
      <path class="cls-1" d="m253.32,129.94c-4.04,3.38-9.84,4.03-13.73,8.28,3.14,1.62,5.99-.31,8.84.23-.03,1.58-1.06,2.47-2.2,3.09-2.83,1.16-5.7,3.87-8.88,2.5-1.94-.78-4.19-1.37-5.95-2.44-.93-2.13-2.46-1.38-3.74-.65-10.02,5.63-12.94,18.96-8.38,29.07,1.76,3.07,4.92,7.64,9.08,5.93,7.71-2.26,5.25,8.69,17.77,7.75,3.68-.02,7.36,0,11.58,0-7.92,5-17.66,6.1-26.88,4.78-1-.18-2.07-.54-2.88-1.13-3.83-2.86-8.55-3.24-12.97-4.55-8.55-2.48-3.42-12.57-3.62-18.97-13.9,5.31-25.09,16.16-34.56,27.41-14.01,16.66-30.88,34.58-30.07,57.83.74,35.87,42.27,36.65,61.96,14.09-4.01-1.41-7.92-1.74-11.23-4.46,16.26-.67,28.26-10.27,40.57-20.03-11.84,20.7-29.09,42.69-53.15,48.97-21.97,5.24-46.45-9.32-47.32-33.04-5.5-46.24,70.43-123.8,115.67-125.17.03.18.06.35.09.53Z"/>
      <path class="cls-1" d="m229.19,217.85c-3.6,1.5-12.32,2.45-13.86,5.32-2.27,4.52-4.47,9.07-6.61,13.66-.6,1.28-1.67,2.22-2.99,1.82-5.34-2.5-3.55-10.87-3.34-15.68-.13-.11-.26-.22-.39-.33-4.92,4.01-8.21,9.55-13.26,13.44-1.97,1.79-6.16,1.54-8-.8-2.65-3.1-2.26-6.61-2.65-10.28-.23-5.98,6.22-17.33,12.78-17.17,4.1.89,8.9,4.32,5.35,8.72-2.58,3.61-5.65,7.68-10.71,6.74-1.36-.24-2.07.4-2.03,1.64.28,2.49-.47,10.7,3.94,7.57,5.28-4.12,9.63-8.18,15.2-12.17.11-2.75.27-6.07.34-9.4.02-1.15.32-1.71,1.59-1.56,2.7.31,3.27.86,3.1,3.6-.13,5.82-1.52,11.37-.53,17.22,1.81-3.4,4.95-6.32,4.57-10.52-.18-1.33.98-1.77,2-1.98,4.86-.96,9.72-1.9,14.61-2.72,1.04-.17,1.76-.29,1.85-1.49.87-3.83,3.81-4.93,5.97-1.23,2.81,6.55-1.1,13.91,1.73,20.42,3.01-3.13,5.47-6.2,6.06-10.31,1.19-5.69,4.23-11.29,9.24-14.28,1.52-.96,6.3.49,7.18,2.08.64,1.16-.44,5.67-1.56,6.48-2.48,1.05-2.06-2.58-2.02-4.58-10.69,4-10.68,25.28-5.01,20.25,3.66-2.59,6.98-5.71,10.48-8.47,4.26-1.89,3.23-7.06,4.64-10.83,1.94-7.11,3.54-14.2,5.55-21.31,3.31.35,4.12,2.72,2.64,5.43-1.88,3.81-2.6,7.93-3.49,12.04-1,4.62-2.87,8.68-3.72,13.41,2.28-.34,4.7-4.06,6.57-5.62,2.87-2.81,8.55-2.53,7.99,2.47-.05,6.07-1.85,12.22-.46,18.22.27.07.54.13.81.2,6.69-9.47,7.52-23.18,17.93-29.75,2.58-1.18,5.7.43,7.68,2.19,3.16,3,.2,6.53-1.93,9.08-5.04,6.93-10.66,1.8-10.57,5.46.41,2.34-.71,10.58,3.64,7.85,4.76-3.21,8.83-7.54,13.38-10.93,2-.48,1.93-2.17,2.51-3.61,1.27-3.19,2.62-6.37,4.21-9.41.84-1.6,4.01-1.03,4.64.7.27.74.41,1.53.67,2.59,2.26-2.59,3.69-6.57,7.64-6.41,1.78.15,2.76,1.38,3.18,3,.57,2.2.68,4.33-1.31,6.03-.8.64-1.41,2.34-2.31,2.7-1.95-.77-1.63-5.03-2.31-7.15-7.76,6.77-9.22,16.93-12.42,26.15-.46,1.38-.97,3.3-2.79,3.02-3.73-.16-.42-12.72-1.03-15.72-.14-.1-.28-.2-.42-.3-3.67,3.95-11.12,15.32-16.97,13.81-5.01-1.52-5.39-6.03-5.74-10.57-2.79,3.21-3.53,12.12-6.67,14.47-7.43-.46-4.97-16.52-5.56-22.11-10.1,4.51-9.64,17.88-12.79,15.93-4.76-1.12-1.79-5.47-1.03-8.62l-.36-.27c-6.36,5.57-16.95,20.7-20.97,4.23-2.06,3.76-5.48,9.02-9.95,5.27-5.42-4.51-5.04-11.15-3.92-17.59Zm67.48,1.69c8.8,1.2,10.58-9.72,5.46-7.47-3.04,1.52-4.62,4.15-5.46,7.47Zm-112.37-.06c9.03,1.28,10.53-9.58,5.56-7.43-3.14,1.49-4.62,4.24-5.56,7.43Z"/>
      <path class="cls-1" d="m136.7,171.34c15.46-15.46,38.15-16.99,58.59-20.23-23.01,22.26-44.64,45.78-58.94,74.72-.2-.05-.4-.11-.6-.16.19-1.99.88-3.52,2-5.21-6.4-3.82-10.82,5.01-14.18,9.04.4-7.03,2.75-13.73,9.59-17.06.62-.49,1.73-1.31,1.61-1.61-2.9-8.27-13.76,1.71-18.55,3.67-.13-.09-.27-.18-.4-.28,9.92-19.7,20.44-10.77,26.87-21.05,4.9-8.74-12.21-2.06-15.64-1.55-4.03.93-7.52,3.65-11.62,4.22,10.91-13.8,26.79-19.82,43.64-22.6.63-.2,1.43-.95,1.51-1.53-1.38-6.63-18.71-.4-23.47.16-.13-.17-.27-.35-.4-.52Z"/>
      <path class="cls-1" d="m76.47,195.93c.82,3.53.07,7.16-.2,10.72-.33,2.79-2.03,4.45-4.85,4.45-9.73-.45-19.46-.55-29.21-.23-2.57-.19-12.25,1.79-8.27-3.31,3.4-1.65,5.46-4,5.64-7.8,1.4-12.75,1.02-25.57,1.07-38.37.12-9.86-5.58-7.71-6.48-11.35.33-1.19,1.99-1.97,3.26-1.71,5.29.53,10.58.59,15.87.02,3.1-.67,3.21,3.41,1.16,4.39-8.91,1.68-5.8,14.77-6.61,21.41-.06,7.1-.03,14.19.02,21.29.1,4.09.25,9.93,5.46,10.28,4.17.47,8.38.71,12.58.75,2.62.03,4.51-1.51,5.68-3.89,1.28-2.39,2.16-5.07,4.34-6.81.18.06.36.11.54.17Z"/>
      <path class="cls-1" d="m369.33,212.86c20.51-16.81,3.17,17.7,8.19,30.55.22.03.44.06.66.09,1.79-4.34,3.37-8.83,4.52-13.37.58-2.61,3.3-10.21,6.7-8.7-.1.41-.07.94-.32,1.23-4.84,6.42-5.17,14.76-7.23,22.26-.83,4.33-5.98,4.7-7.51.79-.56-1.45-.56-3.11-1.05-4.6-1.68-5.14-.34-10.28-.05-15.4.04-3.96,1.83-7.89,1.54-11.85-2.07-.66-2.24,1.37-3.31,2.03-4.66,4.51-7.24,10.88-10.37,16.5-1.22,2.23-2.05,2.56-4.52,2.2-2.33-.19-2.94-2.2-3.63-4.49-.98,1.55-1.79,2.92-2.68,4.25-4.76,6.31-11.59-1.87-11.72-7.37-.55-3.89,1.05-24.03,7.55-14.62,2.72,6.56-1.21,13.75,1.61,20.29,5.95-5.99,7.65-13.93,12.32-20.67,2.03-3.28,7.4-2.39,9.3.87Zm-.89,1.61c-4.88-3.18-9.53,8.49-10.15,12.08.13.05.26.11.39.16,3.24-4.06,6.48-8.13,9.76-12.24Z"/>
      <path class="cls-1" d="m102.8,197.09c-4.66,4.05-8.8,8.79-13.83,12.37-5.14,3.39-9.14-1.11-9.26-5.07-.11-3.59.64-7,2.13-10.23,5.34-11.19,14.14-22.89,27.16-24.93,2.6-.38,5.07-.97,7.2-2.64,4.24-1.88,1.37,4.65.74,6.36-2.4,6.53-4.92,13.02-7.21,19.6-.56,2.78-2.6,8.08.86,9.64,1.5.56,2.58-.23,3.56-1.15,2.17-1.78,3.7-4.47,6.43-5.41,1.19,5.16-5.87,10.79-9.61,13.57-3.76,2.67-9.04.59-8.22-4.69.27-2.38.89-4.72.7-7.13-.21-.1-.43-.2-.64-.3Zm3.01-21.05c-8.98.58-15.38,10.12-18.85,17.57-1.06,2.78-2.31,9.93,2.77,8.5,7.71-2.74,12.6-10.07,16.7-16.77,1.38-2.81,5.25-9.73-.62-9.3Z"/>
      <path class="cls-1" d="m288.92,258c1.75-1.5,3.24-2.04,3.63-4.38.37-2.55,4.41-3.73,3.98-.2-.51,2.3,1.36,2.15,2.99,1.6,9.1-2.1,7.2,11.08,3.19,15.39-3.62,5.3-9.4,1.13-10.88,6.54-.89,3.45-1.85,6.88-2.51,10.37-.41,2.18.16,2.71,2.33,3.26,1.15.18,2.18.43,2.84,1.49-.82.87-1.67,1.09-2.82.81-3.3-.1-6.52-.08-9.82-.43.11-.53.11-.72.16-.74,3.74-1.51,3.7-5.13,4.46-8.21,1.96-8.12,3.55-16.16,5.38-24.34-.92-.36-1.74-.69-2.94-1.16Zm4.59,9.08c-.25,4.09,1.52,5.26,3.99,3.95,3.2-2.07,4.77-6.03,5.11-9.74.66-5.07-6.08-6.47-7.34-1.46-.82,2.8-1.39,5.68-1.76,7.24Z"/>
      <path class="cls-1" d="m262.85,151.37c2.38-4.35,6.59-15.72-2.65-9.26-8.09,5.6-13.65,13.98-19.69,21.6-.29-.23-.58-.46-.87-.69,4.45-10.48,13.33-18.18,20.65-26.64,2.43-2.59,5.53-4.32,9.13-4.95,2.65-.46,3.32.11,2.93,2.78-.98,6.64-3.61,13.16-8.8,17.62-.24-.15-.47-.3-.71-.45Z"/>
      <path class="cls-1" d="m242.59,174.31c4.48-.35,8.83,1.2,13.27,1.38,5.13.16,12.43-2.14,3.99-5.97.04-.17.08-.34.12-.52,14.04-1.49,23.84,17.77.06,11.45-5.88-1.79-11.64-3.98-17.46-5.99,0-.12.01-.24.02-.36Z"/>
      <path class="cls-1" d="m271.32,269.75c-2.2,2.2-10.18,13.53-11.21,5.73-.02-1.41.84-1.71,2.2-1.34,3.16.7,5.02-4.19,7.01-6.07,1.52-1.84-2.22-6.89-3.65-7.72-1.4-.26-2.34,1.16-3.06,2.18-2.85-2.12.79-7.5,3.74-5.85,2.78,1.55,4.32,3.93,6.12,6.66,2.08-1.93,8.73-12.27,10.65-6.38.1,1.07-.24,1.79-1.47,1.28-2.62-1.25-5.47,4.78-6.97,6.51-1.52,2.96,1.34,5.83,2.59,8.38.68,1.18,1.66,1.67,3.07,1.18,4.21-.56-.9,7.12-4.39,2.58-1.78-2.42-2.83-4.57-4.65-7.13Z"/>
      <path class="cls-1" d="m242.62,270.71c.09-6.7,4.16-13.85,11.32-13.62,1.93.1,3.41,1.03,4.23,2.81,1.77,4.77-4.4,8.68-8.73,8.05-2.14-.26-3.15.51-3.38,2.46-.76,4.91,2.81,5.83,6.17,4.3.93-.37,1.67-1.2,2.54-1.76.79-.5,1.43-1.99,2.51-.89-.54,7.6-14.73,11.15-14.65-1.35Zm10.34-10.53c-2.65-.01-5.44,2.98-3.92,5.3,1.55,1.32,3.71.07,4.96-1,1.33-2.24.82-3.14-1.04-4.3Z"/>
      <path class="cls-1" d="m334,263.74c-5.81-1.52-4.5,9.56.75,7.35,2.36-.95,4.21-3.05,6.82-3.46-.01,3.94-3.88,6.49-7.49,7.06-9.19.88-8.52-13.27-3.7-18.19,2.6-3.52,9.58-5.73,11.98-.96,1.95,4.7-4.12,8.65-8.37,8.2Zm1.29-1.96c1.49-.66,5.31-2.06,3.59-4.61-2.46-4.48-9.93,4.62-3.59,4.61Z"/>
      <path class="cls-1" d="m309.52,257.48c.12-2.1,2.01-3.72,3.83-3.45,2.77.36,1.06,4.7,1.23,6.72.22.09.44.18.66.27,2.27-1.95,3.51-4.93,5.95-6.66,3.4-2.44,6.26.39,4.05,3.87-1.97,3.67-3.6-3.33-5.76.44-3.64,4.35-5.19,9.86-6.5,15.28-.42,3.2-4.93,1.9-4.06-.94.98-4.64,2.97-9.15,3.47-13.86-.24-2.6-.8-1.65-2.86-1.66Z"/>
      <path class="cls-1" d="m373.54,257.39c-2.09-1.51-5.07-4.34-7.04-1.75-1.26,1.51-1.1,2.96.63,4.52,1.28,1.15,2.71,2.15,4,3.3,1.77,1.57,3,3.39,2.09,5.92-1.3,5.55-14.81,4.66-11.08-2.35,5.32,4.42,10.73,1.41,4-3.76-5.84-4.94.08-15.67,6.98-10.84,1.2.76,1.37,2.73.42,4.96Z"/>
      <path class="cls-1" d="m356.84,258.24c-2.12-1.48-5.1-4.36-7.05-1.74-1.24,1.51-1.09,2.96.62,4.51,1.28,1.16,2.69,2.17,3.99,3.31,1.73,1.52,2.97,3.3,2.17,5.75-1.17,5.84-14.95,4.74-11.18-2.15,2.03,1.35,4.91,3.42,7.09,1.36,1.51-2.11-1.99-3.8-3.15-5.24-5.57-4.64-.12-15.24,6.8-10.95,1.4.87,1.71,2.62.71,5.17Z"/>
      <path class="cls-1" d="m346.62,201.56c.06,3.61-4.04,3.84-3.9.26-.06-.89.05-1.94,1.25-1.8,1.08.12,2.56,0,2.65,1.54Z"/>
      <path class="cls-1" d="m232.7,201.22c.35-.3.93-1.21,1.43-1.16,1.06.1,2.61-.05,2.59,1.79-.45,3.83-4.07,3.16-4.01-.63Z"/>
      <path class="cls-3" d="m291,281.49c.05-.83.26-1.61.66-2.34,13.44.4,26.77-1.56,40.17-2.16,2.88-.34,5.79-1,8.72-.03.71.24,1.61.3,2.21-.5.27-.37.65-.43,1.08-.29,5.53,1.28,11.01-.71,16.6-.46,4.9-.86,9.89-.07,14.85-.48,1.9-.58,6.51.28,4.77,3.49-.73-1.44-1.61-1.95-3.22-1.13-1.39.71-2.95.26-4.52-.03-7.8-1.67-15.81,2-23.78,1.42-9.28-.57-18.15,1.15-27.35.45-8.49.6-16.83,1.93-25.4,1.72-1.64-.47-3.35,1.27-4.79.34Z"/>
      <path class="cls-3" d="m287.65,279.96c-.06.78-.04,1.57-.46,2.27-2.6.5-5.39-1.28-7.74.14-.67.57-1.59.24-2.34.06-4.33-1.22-8.59,1.52-12.61.26-4.53.9-9.12.73-13.69.61-2.88-.06-10.09,1.95-8.67-3.18,1.12.56,1.14,2.43,3,1.16,3.72-1.29,8.29,1.04,12.38.11,9.93-1.96,20.12-1.27,30.12-1.42Z"/>
    </g>
  </g>
</svg>